<svg width="32" height="32" viewBox="0 0 32 32" fill="none" xmlns="http://www.w3.org/2000/svg"><circle cx="16" cy="16" r="16" fill="#3B82F6"/><path d="M8 6C8 5.44772 8.44772 5 9 5H19C19.5523 5 20 5.44772 20 6V26C20 26.5523 19.5523 27 19 27H9C8.44772 27 8 26.5523 8 26V6Z" fill="white"/><path d="M10 8H18V10H10V8Z" fill="#3B82F6"/><path d="M10 12H18V14H10V12Z" fill="#3B82F6"/><path d="M10 16H18V18H10V16Z" fill="#3B82F6"/><path d="M10 20H18V22H10V20Z" fill="#3B82F6"/><path d="M9 5H10V27H9V5Z" fill="#1E40AF"/></svg>
